<mxfile host="app.diagrams.net" modified="2020-11-05T08:49:51.320Z" agent="5.0 (Windows NT 10.0; Win64; x64) AppleWebKit/537.36 (KHTML, like Gecko) Chrome/80.0.3987.163 Safari/537.36" etag="6aANX5-n4abFi-5eefL_" version="13.8.9-1" type="github">
  <diagram id="C5RBs43oDa-KdzZeNtuy" name="Page-1">
    <mxGraphModel dx="1182" dy="1751" grid="1" gridSize="10" guides="1" tooltips="1" connect="1" arrows="1" fold="1" page="1" pageScale="1" pageWidth="827" pageHeight="1169" math="0" shadow="0">
      <root>
        <mxCell id="WIyWlLk6GJQsqaUBKTNV-0" />
        <mxCell id="WIyWlLk6GJQsqaUBKTNV-1" parent="WIyWlLk6GJQsqaUBKTNV-0" />
        <mxCell id="MygkJCJRXzDX6hy5kthp-12" style="edgeStyle=orthogonalEdgeStyle;rounded=0;orthogonalLoop=1;jettySize=auto;html=1;" edge="1" parent="WIyWlLk6GJQsqaUBKTNV-1" source="WIyWlLk6GJQsqaUBKTNV-3" target="MygkJCJRXzDX6hy5kthp-10">
          <mxGeometry relative="1" as="geometry" />
        </mxCell>
        <mxCell id="WIyWlLk6GJQsqaUBKTNV-3" value="EXTB005订购效验成功生成一条上链数据" style="rounded=1;whiteSpace=wrap;html=1;fontSize=12;glass=0;strokeWidth=1;shadow=0;" parent="WIyWlLk6GJQsqaUBKTNV-1" vertex="1">
          <mxGeometry x="160" y="80" width="120" height="40" as="geometry" />
        </mxCell>
        <mxCell id="MygkJCJRXzDX6hy5kthp-42" style="edgeStyle=orthogonalEdgeStyle;rounded=0;orthogonalLoop=1;jettySize=auto;html=1;" edge="1" parent="WIyWlLk6GJQsqaUBKTNV-1" source="WIyWlLk6GJQsqaUBKTNV-7" target="MygkJCJRXzDX6hy5kthp-41">
          <mxGeometry relative="1" as="geometry" />
        </mxCell>
        <mxCell id="WIyWlLk6GJQsqaUBKTNV-7" value="更新完成过后，这条数据就全部都有值了" style="rounded=1;whiteSpace=wrap;html=1;fontSize=12;glass=0;strokeWidth=1;shadow=0;" parent="WIyWlLk6GJQsqaUBKTNV-1" vertex="1">
          <mxGeometry x="560" y="250" width="120" height="40" as="geometry" />
        </mxCell>
        <mxCell id="MygkJCJRXzDX6hy5kthp-3" style="edgeStyle=orthogonalEdgeStyle;rounded=0;orthogonalLoop=1;jettySize=auto;html=1;" edge="1" parent="WIyWlLk6GJQsqaUBKTNV-1" source="MygkJCJRXzDX6hy5kthp-2" target="WIyWlLk6GJQsqaUBKTNV-3">
          <mxGeometry relative="1" as="geometry" />
        </mxCell>
        <mxCell id="MygkJCJRXzDX6hy5kthp-2" value="Actor" style="shape=umlActor;verticalLabelPosition=bottom;verticalAlign=top;html=1;outlineConnect=0;" vertex="1" parent="WIyWlLk6GJQsqaUBKTNV-1">
          <mxGeometry x="205" y="-50" width="30" height="60" as="geometry" />
        </mxCell>
        <mxCell id="MygkJCJRXzDX6hy5kthp-39" style="edgeStyle=orthogonalEdgeStyle;rounded=0;orthogonalLoop=1;jettySize=auto;html=1;" edge="1" parent="WIyWlLk6GJQsqaUBKTNV-1" source="MygkJCJRXzDX6hy5kthp-4" target="WIyWlLk6GJQsqaUBKTNV-7">
          <mxGeometry relative="1" as="geometry" />
        </mxCell>
        <mxCell id="MygkJCJRXzDX6hy5kthp-4" value="拉取数据之后，会通过能开主订单ID更新&lt;br&gt;链上结果检索获取时间" style="rounded=1;whiteSpace=wrap;html=1;fontSize=12;glass=0;strokeWidth=1;shadow=0;" vertex="1" parent="WIyWlLk6GJQsqaUBKTNV-1">
          <mxGeometry x="560" y="110" width="120" height="60" as="geometry" />
        </mxCell>
        <mxCell id="MygkJCJRXzDX6hy5kthp-46" style="edgeStyle=orthogonalEdgeStyle;rounded=0;orthogonalLoop=1;jettySize=auto;html=1;" edge="1" parent="WIyWlLk6GJQsqaUBKTNV-1" source="MygkJCJRXzDX6hy5kthp-5" target="MygkJCJRXzDX6hy5kthp-45">
          <mxGeometry relative="1" as="geometry" />
        </mxCell>
        <mxCell id="MygkJCJRXzDX6hy5kthp-5" value="测试暂定1h链上清除数据" style="rounded=1;whiteSpace=wrap;html=1;fontSize=12;glass=0;strokeWidth=1;shadow=0;" vertex="1" parent="WIyWlLk6GJQsqaUBKTNV-1">
          <mxGeometry x="780" width="120" height="40" as="geometry" />
        </mxCell>
        <mxCell id="MygkJCJRXzDX6hy5kthp-37" style="edgeStyle=orthogonalEdgeStyle;rounded=0;orthogonalLoop=1;jettySize=auto;html=1;" edge="1" parent="WIyWlLk6GJQsqaUBKTNV-1" source="MygkJCJRXzDX6hy5kthp-6" target="MygkJCJRXzDX6hy5kthp-4">
          <mxGeometry relative="1" as="geometry" />
        </mxCell>
        <mxCell id="MygkJCJRXzDX6hy5kthp-6" value="测试暂定10分钟一次&lt;br&gt;去链上拉取数据" style="rounded=1;whiteSpace=wrap;html=1;fontSize=12;glass=0;strokeWidth=1;shadow=0;" vertex="1" parent="WIyWlLk6GJQsqaUBKTNV-1">
          <mxGeometry x="560" width="120" height="40" as="geometry" />
        </mxCell>
        <mxCell id="MygkJCJRXzDX6hy5kthp-31" style="edgeStyle=orthogonalEdgeStyle;rounded=0;orthogonalLoop=1;jettySize=auto;html=1;" edge="1" parent="WIyWlLk6GJQsqaUBKTNV-1" source="MygkJCJRXzDX6hy5kthp-7" target="MygkJCJRXzDX6hy5kthp-22">
          <mxGeometry relative="1" as="geometry" />
        </mxCell>
        <mxCell id="MygkJCJRXzDX6hy5kthp-7" value="扣费结果反馈的时候，通过能开主订单ID更新&lt;br&gt;是否通过现有接口获取到省公司返回的扣费结果(0 否，1 是)，&lt;br&gt;扣费结果获取时间（原流程）" style="rounded=1;whiteSpace=wrap;html=1;fontSize=12;glass=0;strokeWidth=1;shadow=0;" vertex="1" parent="WIyWlLk6GJQsqaUBKTNV-1">
          <mxGeometry x="132.5" y="870" width="175" height="110" as="geometry" />
        </mxCell>
        <mxCell id="MygkJCJRXzDX6hy5kthp-19" style="edgeStyle=orthogonalEdgeStyle;rounded=0;orthogonalLoop=1;jettySize=auto;html=1;" edge="1" parent="WIyWlLk6GJQsqaUBKTNV-1" source="MygkJCJRXzDX6hy5kthp-8" target="MygkJCJRXzDX6hy5kthp-7">
          <mxGeometry relative="1" as="geometry" />
        </mxCell>
        <mxCell id="MygkJCJRXzDX6hy5kthp-8" value="调用OSPB076发放的时候，会通过能开主订单ID更新&lt;br&gt;是否已通过现有接口完成OSPB076下发(0 否，1 是)，&lt;br&gt;接口下发时间" style="rounded=1;whiteSpace=wrap;html=1;fontSize=12;glass=0;strokeWidth=1;shadow=0;" vertex="1" parent="WIyWlLk6GJQsqaUBKTNV-1">
          <mxGeometry x="145" y="660" width="150" height="110" as="geometry" />
        </mxCell>
        <mxCell id="MygkJCJRXzDX6hy5kthp-17" style="edgeStyle=orthogonalEdgeStyle;rounded=0;orthogonalLoop=1;jettySize=auto;html=1;entryX=0.5;entryY=0;entryDx=0;entryDy=0;" edge="1" parent="WIyWlLk6GJQsqaUBKTNV-1" source="MygkJCJRXzDX6hy5kthp-9" target="MygkJCJRXzDX6hy5kthp-15">
          <mxGeometry relative="1" as="geometry" />
        </mxCell>
        <mxCell id="MygkJCJRXzDX6hy5kthp-9" value="异步调用区块链上链接口，上链成功之后会返回&lt;br&gt;上链交易编号，&lt;br&gt;块编号" style="rounded=1;whiteSpace=wrap;html=1;fontSize=12;glass=0;strokeWidth=1;shadow=0;" vertex="1" parent="WIyWlLk6GJQsqaUBKTNV-1">
          <mxGeometry x="160" y="300" width="120" height="70" as="geometry" />
        </mxCell>
        <mxCell id="MygkJCJRXzDX6hy5kthp-14" style="edgeStyle=orthogonalEdgeStyle;rounded=0;orthogonalLoop=1;jettySize=auto;html=1;entryX=0.5;entryY=0;entryDx=0;entryDy=0;" edge="1" parent="WIyWlLk6GJQsqaUBKTNV-1" source="MygkJCJRXzDX6hy5kthp-10" target="MygkJCJRXzDX6hy5kthp-9">
          <mxGeometry relative="1" as="geometry" />
        </mxCell>
        <mxCell id="MygkJCJRXzDX6hy5kthp-10" value="数据有三个字段&lt;br&gt;权益主订单ID，&lt;br&gt;能开主订单编码，&lt;br&gt;能开子订单编码" style="rounded=1;whiteSpace=wrap;html=1;fontSize=12;glass=0;strokeWidth=1;shadow=0;" vertex="1" parent="WIyWlLk6GJQsqaUBKTNV-1">
          <mxGeometry x="160" y="170" width="120" height="80" as="geometry" />
        </mxCell>
        <mxCell id="MygkJCJRXzDX6hy5kthp-18" style="edgeStyle=orthogonalEdgeStyle;rounded=0;orthogonalLoop=1;jettySize=auto;html=1;" edge="1" parent="WIyWlLk6GJQsqaUBKTNV-1" source="MygkJCJRXzDX6hy5kthp-15" target="MygkJCJRXzDX6hy5kthp-8">
          <mxGeometry relative="1" as="geometry" />
        </mxCell>
        <mxCell id="MygkJCJRXzDX6hy5kthp-15" value="通过能开主订单ID更新&lt;br&gt;上链交易编号，&lt;br&gt;块编号，&lt;br&gt;上链请求发送时间，&lt;br&gt;上链成功确认时间，&lt;br&gt;是否上链成功(0 否，1 是)" style="rounded=1;whiteSpace=wrap;html=1;fontSize=12;glass=0;strokeWidth=1;shadow=0;" vertex="1" parent="WIyWlLk6GJQsqaUBKTNV-1">
          <mxGeometry x="155" y="450" width="130" height="110" as="geometry" />
        </mxCell>
        <mxCell id="MygkJCJRXzDX6hy5kthp-22" value="" style="ellipse;html=1;shape=endState;fillColor=#000000;strokeColor=#ff0000;" vertex="1" parent="WIyWlLk6GJQsqaUBKTNV-1">
          <mxGeometry x="205" y="1060" width="30" height="30" as="geometry" />
        </mxCell>
        <mxCell id="MygkJCJRXzDX6hy5kthp-35" value="定时拉去数据" style="edgeStyle=orthogonalEdgeStyle;rounded=0;orthogonalLoop=1;jettySize=auto;html=1;" edge="1" parent="WIyWlLk6GJQsqaUBKTNV-1" source="MygkJCJRXzDX6hy5kthp-33" target="MygkJCJRXzDX6hy5kthp-6">
          <mxGeometry relative="1" as="geometry" />
        </mxCell>
        <mxCell id="MygkJCJRXzDX6hy5kthp-36" value="定时清除数据" style="edgeStyle=orthogonalEdgeStyle;rounded=0;orthogonalLoop=1;jettySize=auto;html=1;" edge="1" parent="WIyWlLk6GJQsqaUBKTNV-1" source="MygkJCJRXzDX6hy5kthp-33" target="MygkJCJRXzDX6hy5kthp-5">
          <mxGeometry relative="1" as="geometry" />
        </mxCell>
        <mxCell id="MygkJCJRXzDX6hy5kthp-33" value="定时任务" style="ellipse;shape=doubleEllipse;whiteSpace=wrap;html=1;" vertex="1" parent="WIyWlLk6GJQsqaUBKTNV-1">
          <mxGeometry x="680" y="-100" width="100" height="60" as="geometry" />
        </mxCell>
        <mxCell id="MygkJCJRXzDX6hy5kthp-41" value="" style="ellipse;html=1;shape=endState;fillColor=#000000;strokeColor=#ff0000;" vertex="1" parent="WIyWlLk6GJQsqaUBKTNV-1">
          <mxGeometry x="605" y="340" width="30" height="30" as="geometry" />
        </mxCell>
        <mxCell id="MygkJCJRXzDX6hy5kthp-43" value="" style="ellipse;html=1;shape=endState;fillColor=#000000;strokeColor=#ff0000;" vertex="1" parent="WIyWlLk6GJQsqaUBKTNV-1">
          <mxGeometry x="825" y="330" width="30" height="30" as="geometry" />
        </mxCell>
        <mxCell id="MygkJCJRXzDX6hy5kthp-47" style="edgeStyle=orthogonalEdgeStyle;rounded=0;orthogonalLoop=1;jettySize=auto;html=1;" edge="1" parent="WIyWlLk6GJQsqaUBKTNV-1" source="MygkJCJRXzDX6hy5kthp-45" target="MygkJCJRXzDX6hy5kthp-43">
          <mxGeometry relative="1" as="geometry" />
        </mxCell>
        <mxCell id="MygkJCJRXzDX6hy5kthp-45" value="清除数据之后，调用通过能开订单查寻链上接口查不到，&lt;br&gt;则表明清除成功&lt;br&gt;（调用接口地址：&lt;a href=&quot;http://10.248.68.177:8200/swagger-ui.html&quot;&gt;http://10.248.68.177:8200/swagger-ui.html&lt;/a&gt;&lt;br&gt;）" style="rounded=1;whiteSpace=wrap;html=1;fontSize=12;glass=0;strokeWidth=1;shadow=0;" vertex="1" parent="WIyWlLk6GJQsqaUBKTNV-1">
          <mxGeometry x="780" y="110" width="120" height="110" as="geometry" />
        </mxCell>
      </root>
    </mxGraphModel>
  </diagram>
</mxfile>
